# xmcd CD database file
#
# Track frame offsets:
#	150
#	23494
#	45000
#	67009
#	90073
#	109801
#	141351
#	160053
#	177172
#	212406
#
# Disc length: 3130 seconds
#
# Revision: 0
# Processed by: cddbd v1.5.2PL0 Copyright (c) Steve Scherf et al.
# Submitted via: CDex 1.51
#
DISCID=700c380a
DTITLE=P.E. Hewiit jazz ensemble - Winter winds
DYEAR=1970
DGENRE=Jazz
TTITLE0=I'm wondering why
TTITLE1=More than anything
TTITLE2=It's got two, and that's allright (show me the way)
TTITLE3=Il love song
TTITLE4=Oma rakas
TTITLE5=The winter wind
TTITLE6=Baon que bash
TTITLE7=Tuija
TTITLE8=Betrayed
TTITLE9=It doesn't matter... Yes it does, .... but I can't stop
EXTD=YEAR: 1970
EXTT0=
EXTT1=
EXTT2=
EXTT3=
EXTT4=
EXTT5=
EXTT6=
EXTT7=
EXTT8=
EXTT9=
PLAYORDER=
